<svg xmlns="http://www.w3.org/2000/svg" width="1800" height="2080" viewBox="0 0 1800 2080">
<title>影视技能组合工作流程图</title><desc>主流程、创意思路、按需辅助和用户测试后正式启用的维护闭环。</desc>
<rect width="100%" height="100%" fill="#0B111A"/>
<text x="40" y="85.88" font-family="Microsoft YaHei UI,Microsoft YaHei,Noto Sans CJK SC,sans-serif" font-size="48" font-weight="700" fill="#F2F5FA">你现在涉及的全部方案 · 总关系图</text>
<text x="42" y="131.5" font-family="Microsoft YaHei UI,Microsoft YaHei,Noto Sans CJK SC,sans-serif" font-size="25" font-weight="400" fill="#B2C2D4">现用体系、最新 A、最新 B 各有完整流程图；历史候选、融合创作和维护闭环一起标清。</text>
<rect x="40" y="160" width="1720" height="60" rx="12" fill="#252132" stroke="#BCAAFA" stroke-width="2"/>
<text x="62" y="202.5" font-family="Microsoft YaHei UI,Microsoft YaHei,Noto Sans CJK SC,sans-serif" font-size="25" font-weight="400" fill="#F2F5FA">三套完整工作体系 ＋ 一份融合样稿；“融合”目前是作品候选，不是第四个独立技能版本。</text>
<polyline points="290,380 290,450" fill="none" stroke="#65B6FF" stroke-width="3" stroke-linejoin="round"/>
<polygon points="290,450 284.5,437 295.5,437" fill="#65B6FF"/>
<polyline points="900,380 900,450" fill="none" stroke="#68D9C4" stroke-width="3" stroke-linejoin="round"/>
<polygon points="900,450 894.5,437 905.5,437" fill="#68D9C4"/>
<polyline points="1490,380 1490,450" fill="none" stroke="#BCAAFA" stroke-width="3" stroke-linejoin="round"/>
<polygon points="1490,450 1484.5,437 1495.5,437" fill="#BCAAFA"/>
<polyline points="540,550 650,550" fill="none" stroke="#65B6FF" stroke-width="3" stroke-linejoin="round" stroke-dasharray="12 9"/>
<polygon points="650,550 637,555.5 637,544.5" fill="#65B6FF"/>
<polyline points="1150,550 1240,550" fill="none" stroke="#BCAAFA" stroke-width="3" stroke-linejoin="round" stroke-dasharray="12 9"/>
<polygon points="1240,550 1227,555.5 1227,544.5" fill="#BCAAFA"/>
<text x="556" y="533.02" font-family="Microsoft YaHei UI,Microsoft YaHei,Noto Sans CJK SC,sans-serif" font-size="17" font-weight="400" fill="#65B6FF">保留旧长处</text>
<text x="1160" y="533.02" font-family="Microsoft YaHei UI,Microsoft YaHei,Noto Sans CJK SC,sans-serif" font-size="17" font-weight="400" fill="#BCAAFA">同核心</text>
<rect x="40" y="270" width="500" height="110" rx="12" fill="#142132" stroke="#65B6FF" stroke-width="2"/>
<text x="62" y="318.8" font-family="Microsoft YaHei UI,Microsoft YaHei,Noto Sans CJK SC,sans-serif" font-size="30" font-weight="700" fill="#65B6FF">当前本机使用指针</text>
<text x="62" y="357.38" font-family="Microsoft YaHei UI,Microsoft YaHei,Noto Sans CJK SC,sans-serif" font-size="23" font-weight="400" fill="#F2F5FA">ai-storyboard-director → 5.6.5</text>
<rect x="650" y="270" width="500" height="110" rx="12" fill="#142132" stroke="#68D9C4" stroke-width="2"/>
<text x="672" y="318.8" font-family="Microsoft YaHei UI,Microsoft YaHei,Noto Sans CJK SC,sans-serif" font-size="30" font-weight="700" fill="#68D9C4">原 A：5.7.0</text>
<text x="672" y="358.44" font-family="Microsoft YaHei UI,Microsoft YaHei,Noto Sans CJK SC,sans-serif" font-size="24" font-weight="400" fill="#F2F5FA">历史候选保留 → 修订2</text>
<rect x="1240" y="270" width="520" height="110" rx="12" fill="#142132" stroke="#BCAAFA" stroke-width="2"/>
<text x="1262" y="318.8" font-family="Microsoft YaHei UI,Microsoft YaHei,Noto Sans CJK SC,sans-serif" font-size="30" font-weight="700" fill="#BCAAFA">原 B：5.7.0-jev</text>
<text x="1262" y="358.44" font-family="Microsoft YaHei UI,Microsoft YaHei,Noto Sans CJK SC,sans-serif" font-size="24" font-weight="400" fill="#F2F5FA">历史候选保留 → 修订2</text>
<rect x="40" y="450" width="500" height="215" rx="12" fill="#142132" stroke="#65B6FF" stroke-width="2"/>
<text x="62" y="498.8" font-family="Microsoft YaHei UI,Microsoft YaHei,Noto Sans CJK SC,sans-serif" font-size="30" font-weight="700" fill="#65B6FF">01  现用体系 · 5.6.5</text>
<text x="62" y="536.32" font-family="Microsoft YaHei UI,Microsoft YaHei,Noto Sans CJK SC,sans-serif" font-size="22" font-weight="400" fill="#F2F5FA">编剧、导演、风格、资产、分镜、提示词</text>
<text x="62" y="570.32" font-family="Microsoft YaHei UI,Microsoft YaHei,Noto Sans CJK SC,sans-serif" font-size="22" font-weight="400" fill="#F2F5FA">实际制作、剪辑、完整播放与用户审阅</text>
<text x="62" y="604.32" font-family="Microsoft YaHei UI,Microsoft YaHei,Noto Sans CJK SC,sans-serif" font-size="22" font-weight="400" fill="#F2F5FA">默认继续使用；不自动切到候选</text>
<rect x="650" y="450" width="500" height="215" rx="12" fill="#142132" stroke="#68D9C4" stroke-width="2"/>
<text x="672" y="498.8" font-family="Microsoft YaHei UI,Microsoft YaHei,Noto Sans CJK SC,sans-serif" font-size="30" font-weight="700" fill="#68D9C4">02  最新 A · 5.7.1</text>
<text x="672" y="537.38" font-family="Microsoft YaHei UI,Microsoft YaHei,Noto Sans CJK SC,sans-serif" font-size="23" font-weight="400" fill="#F2F5FA">21 包完整候选，无 Jev 运行依赖</text>
<text x="672" y="571.38" font-family="Microsoft YaHei UI,Microsoft YaHei,Noto Sans CJK SC,sans-serif" font-size="23" font-weight="400" fill="#F2F5FA">显式创意思路、按阶段交付与局部修复</text>
<text x="672" y="605.38" font-family="Microsoft YaHei UI,Microsoft YaHei,Noto Sans CJK SC,sans-serif" font-size="23" font-weight="400" fill="#F2F5FA">已测试仍有问题；待你测试认可</text>
<rect x="1240" y="450" width="520" height="215" rx="12" fill="#142132" stroke="#BCAAFA" stroke-width="2"/>
<text x="1262" y="498.8" font-family="Microsoft YaHei UI,Microsoft YaHei,Noto Sans CJK SC,sans-serif" font-size="30" font-weight="700" fill="#BCAAFA">03  最新 B · 5.7.1-jev</text>
<text x="1262" y="537.38" font-family="Microsoft YaHei UI,Microsoft YaHei,Noto Sans CJK SC,sans-serif" font-size="23" font-weight="400" fill="#F2F5FA">A 的完整能力＋可选 Jev 文字复核</text>
<text x="1262" y="571.38" font-family="Microsoft YaHei UI,Microsoft YaHei,Noto Sans CJK SC,sans-serif" font-size="23" font-weight="400" fill="#F2F5FA">已有真实文字调用，不直接看图或审美</text>
<text x="1262" y="605.38" font-family="Microsoft YaHei UI,Microsoft YaHei,Noto Sans CJK SC,sans-serif" font-size="23" font-weight="400" fill="#F2F5FA">同样未默认启用；正式需你认可</text>
<text x="60" y="734.5" font-family="Microsoft YaHei UI,Microsoft YaHei,Noto Sans CJK SC,sans-serif" font-size="25" font-weight="400" fill="#B2C2D4">三套均列全 21 包与仙侠；TypeSafe 作为 B 的外部接入支持，实验／未安装也分别标出。</text>
<rect x="40" y="790" width="1720" height="450" rx="12" fill="#201C19" stroke="#FFB268" stroke-width="2"/>
<text x="64" y="839.86" font-family="Microsoft YaHei UI,Microsoft YaHei,Noto Sans CJK SC,sans-serif" font-size="31" font-weight="700" fill="#FFB268">正在创建与修改：5.6.5 ＋ A 融合样稿，以及创意思路机制</text>
<polyline points="270,1000 270,1050 660,1050 660,1080" fill="none" stroke="#FFB268" stroke-width="3" stroke-linejoin="round"/>
<polygon points="660,1080 654.5,1067 665.5,1067" fill="#FFB268"/>
<polyline points="740,1000 740,1080" fill="none" stroke="#FFB268" stroke-width="3" stroke-linejoin="round"/>
<polygon points="740,1080 734.5,1067 745.5,1067" fill="#FFB268"/>
<polyline points="1510,1000 1510,1140 1280,1140" fill="none" stroke="#BCAAFA" stroke-width="3" stroke-linejoin="round" stroke-dasharray="12 9"/>
<polygon points="1280,1140 1293,1134.5 1293,1145.5" fill="#BCAAFA"/>
<rect x="70" y="875" width="400" height="125" rx="12" fill="#142132" stroke="#65B6FF" stroke-width="2"/>
<text x="92" y="923.8" font-family="Microsoft YaHei UI,Microsoft YaHei,Noto Sans CJK SC,sans-serif" font-size="30" font-weight="700" fill="#65B6FF">取自现用 5.6.5</text>
<text x="92" y="960.26" font-family="Microsoft YaHei UI,Microsoft YaHei,Noto Sans CJK SC,sans-serif" font-size="21" font-weight="400" fill="#F2F5FA">纸袋交接特写、双人问答</text>
<text x="92" y="994.26" font-family="Microsoft YaHei UI,Microsoft YaHei,Noto Sans CJK SC,sans-serif" font-size="21" font-weight="400" fill="#F2F5FA">最后直接看男子本人进巷口</text>
<rect x="540" y="875" width="400" height="125" rx="12" fill="#142132" stroke="#68D9C4" stroke-width="2"/>
<text x="562" y="923.8" font-family="Microsoft YaHei UI,Microsoft YaHei,Noto Sans CJK SC,sans-serif" font-size="30" font-weight="700" fill="#68D9C4">取自 A 的摄影方案</text>
<text x="562" y="960.26" font-family="Microsoft YaHei UI,Microsoft YaHei,Noto Sans CJK SC,sans-serif" font-size="21" font-weight="400" fill="#F2F5FA">手停后仰摇＋移焦</text>
<text x="562" y="994.26" font-family="Microsoft YaHei UI,Microsoft YaHei,Noto Sans CJK SC,sans-serif" font-size="21" font-weight="400" fill="#F2F5FA">分别呈现人物反应及视线衔接</text>
<rect x="1280" y="875" width="450" height="125" rx="12" fill="#142132" stroke="#BCAAFA" stroke-width="2"/>
<text x="1302" y="923.8" font-family="Microsoft YaHei UI,Microsoft YaHei,Noto Sans CJK SC,sans-serif" font-size="30" font-weight="700" fill="#BCAAFA">B 曾核对融合文字</text>
<text x="1302" y="960.26" font-family="Microsoft YaHei UI,Microsoft YaHei,Noto Sans CJK SC,sans-serif" font-size="21" font-weight="400" fill="#F2F5FA">核查持物、交接、沉默与入巷</text>
<text x="1302" y="994.26" font-family="Microsoft YaHei UI,Microsoft YaHei,Noto Sans CJK SC,sans-serif" font-size="21" font-weight="400" fill="#F2F5FA">通过文字项不等于画面或用户通过</text>
<rect x="480" y="1080" width="800" height="135" rx="12" fill="#142132" stroke="#FFB268" stroke-width="2"/>
<text x="502" y="1128.8" font-family="Microsoft YaHei UI,Microsoft YaHei,Noto Sans CJK SC,sans-serif" font-size="30" font-weight="700" fill="#FFB268">《修表铺外》融合候选 v0.1 · 30 秒／6 镜</text>
<text x="502" y="1166.32" font-family="Microsoft YaHei UI,Microsoft YaHei,Noto Sans CJK SC,sans-serif" font-size="22" font-weight="400" fill="#F2F5FA">交接 → 问答 → 停手／倒影 → 林质问 → 陈转看 → 真人入巷</text>
<text x="502" y="1200.32" font-family="Microsoft YaHei UI,Microsoft YaHei,Noto Sans CJK SC,sans-serif" font-size="22" font-weight="400" fill="#F2F5FA">只有末镜方式已选定；整份样稿仍待审，不自动升正式</text>
<text x="66" y="1300.44" font-family="Microsoft YaHei UI,Microsoft YaHei,Noto Sans CJK SC,sans-serif" font-size="24" font-weight="400" fill="#FFB268">创意思路：观看节点 → 不同拍法 → 画面过程／作用／取舍 → 你选择 → 仅合并选中部分；不自动生成。</text>
<rect x="40" y="1360" width="1720" height="320" rx="12" fill="#191E31" stroke="#BCAAFA" stroke-width="2"/>
<text x="64" y="1410.86" font-family="Microsoft YaHei UI,Microsoft YaHei,Noto Sans CJK SC,sans-serif" font-size="31" font-weight="700" fill="#BCAAFA">技能整改与正式启用的完整闭环</text>
<rect x="60" y="1450" width="250" height="75" rx="12" fill="#24223A" stroke="#BCAAFA" stroke-width="2"/>
<text x="76" y="1498.44" font-family="Microsoft YaHei UI,Microsoft YaHei,Noto Sans CJK SC,sans-serif" font-size="24" font-weight="700" fill="#F2F5FA">检查并保留回退点</text>
<polyline points="310,1487 344,1487" fill="none" stroke="#BCAAFA" stroke-width="3" stroke-linejoin="round"/>
<polygon points="344,1487 331,1492.5 331,1481.5" fill="#BCAAFA"/>
<rect x="344" y="1450" width="250" height="75" rx="12" fill="#24223A" stroke="#BCAAFA" stroke-width="2"/>
<text x="360" y="1498.44" font-family="Microsoft YaHei UI,Microsoft YaHei,Noto Sans CJK SC,sans-serif" font-size="24" font-weight="700" fill="#F2F5FA">在候选中修改</text>
<polyline points="594,1487 628,1487" fill="none" stroke="#BCAAFA" stroke-width="3" stroke-linejoin="round"/>
<polygon points="628,1487 615,1492.5 615,1481.5" fill="#BCAAFA"/>
<rect x="628" y="1450" width="250" height="75" rx="12" fill="#24223A" stroke="#BCAAFA" stroke-width="2"/>
<text x="644" y="1498.44" font-family="Microsoft YaHei UI,Microsoft YaHei,Noto Sans CJK SC,sans-serif" font-size="24" font-weight="700" fill="#F2F5FA">同题实际测试</text>
<polyline points="878,1487 912,1487" fill="none" stroke="#BCAAFA" stroke-width="3" stroke-linejoin="round"/>
<polygon points="912,1487 899,1492.5 899,1481.5" fill="#BCAAFA"/>
<rect x="912" y="1450" width="250" height="75" rx="12" fill="#24223A" stroke="#BCAAFA" stroke-width="2"/>
<text x="928" y="1498.44" font-family="Microsoft YaHei UI,Microsoft YaHei,Noto Sans CJK SC,sans-serif" font-size="24" font-weight="700" fill="#F2F5FA">对比真实成品</text>
<polyline points="1162,1487 1196,1487" fill="none" stroke="#BCAAFA" stroke-width="3" stroke-linejoin="round"/>
<polygon points="1196,1487 1183,1492.5 1183,1481.5" fill="#BCAAFA"/>
<rect x="1196" y="1450" width="250" height="75" rx="12" fill="#24223A" stroke="#BCAAFA" stroke-width="2"/>
<text x="1212" y="1498.44" font-family="Microsoft YaHei UI,Microsoft YaHei,Noto Sans CJK SC,sans-serif" font-size="24" font-weight="700" fill="#F2F5FA">用户测试并认可</text>
<polyline points="1446,1487 1480,1487" fill="none" stroke="#BCAAFA" stroke-width="3" stroke-linejoin="round"/>
<polygon points="1480,1487 1467,1492.5 1467,1481.5" fill="#BCAAFA"/>
<rect x="1480" y="1450" width="250" height="75" rx="12" fill="#24223A" stroke="#BCAAFA" stroke-width="2"/>
<text x="1496" y="1498.44" font-family="Microsoft YaHei UI,Microsoft YaHei,Noto Sans CJK SC,sans-serif" font-size="24" font-weight="700" fill="#F2F5FA">正式启用并统一</text>
<polyline points="1037,1525 1037,1580" fill="none" stroke="#FFB268" stroke-width="3" stroke-linejoin="round" stroke-dasharray="12 9"/>
<polygon points="1037,1580 1031.5,1567 1042.5,1567" fill="#FFB268"/>
<polyline points="1321,1525 1321,1612 1240,1612" fill="none" stroke="#FFB268" stroke-width="3" stroke-linejoin="round" stroke-dasharray="12 9"/>
<polygon points="1240,1612 1253,1606.5 1253,1617.5" fill="#FFB268"/>
<polyline points="600,1612 469,1612 469,1525" fill="none" stroke="#FFB268" stroke-width="3" stroke-linejoin="round" stroke-dasharray="12 9"/>
<polygon points="469,1525 474.5,1538 463.5,1538" fill="#FFB268"/>
<rect x="600" y="1580" width="640" height="64" rx="12" fill="#30251B" stroke="#FFB268" stroke-width="2"/>
<text x="624" y="1620.38" font-family="Microsoft YaHei UI,Microsoft YaHei,Noto Sans CJK SC,sans-serif" font-size="23" font-weight="400" fill="#F2F5FA">不通过：保留／恢复原版 → 定位并修复 → 再测试</text>
<text x="64" y="1761.8" font-family="Microsoft YaHei UI,Microsoft YaHei,Noto Sans CJK SC,sans-serif" font-size="30" font-weight="700" fill="#FFB268">这次仍然未通过的地方</text>
<text x="64" y="1810.56" font-family="Microsoft YaHei UI,Microsoft YaHei,Noto Sans CJK SC,sans-serif" font-size="26" font-weight="400" fill="#F2F5FA">修订稿仍有：推断人物知情、把陈述句解释为发问和施压、重复表达。</text>
<text x="64" y="1852.56" font-family="Microsoft YaHei UI,Microsoft YaHei,Noto Sans CJK SC,sans-serif" font-size="26" font-weight="400" fill="#F2F5FA">创意设计没有全面胜者；严格编译现用版略忠实紧凑；道具提示词基本持平。</text>
<text x="64" y="1894.56" font-family="Microsoft YaHei UI,Microsoft YaHei,Noto Sans CJK SC,sans-serif" font-size="26" font-weight="400" fill="#F2F5FA">读取量减少已观察到；总体速度提升、整体质量领先和用户接受尚未证明。</text>
<text x="64" y="1969.38" font-family="Microsoft YaHei UI,Microsoft YaHei,Noto Sans CJK SC,sans-serif" font-size="23" font-weight="400" fill="#B2C2D4">范围说明：18 常规＋3 实验＝21 仓库包；硬科幻与短剧未安装；古风、白模已装但为实验分发。</text>
<text x="64" y="2009.38" font-family="Microsoft YaHei UI,Microsoft YaHei,Noto Sans CJK SC,sans-serif" font-size="23" font-weight="400" fill="#B2C2D4">默认、候选、实验、已安装与用户接受是不同状态；图中分别标示。状态冻结点：revision 129。</text>
</svg>
